<svg width="3629" height="690" viewBox="0 0 3629 690" fill="none" xmlns="http://www.w3.org/2000/svg">
<path d="M885.67 50.7343C885.211 53.505 883.359 59.9791 881.73 67.407C878.335 82.8892 877.316 96.1787 875.931 102.458C874.234 110.153 872.221 118.455 869.436 128.194C865.458 142.107 865.259 151.87 863.401 163.231C861.757 173.279 859.69 182.473 857.831 190.402C855.851 198.849 852.729 207.088 851.796 214.997C850.916 222.456 848.078 229.365 844.382 240.044C837.774 259.132 830.452 287.368 827.438 298.29C825.08 306.834 823.491 313.376 821.632 322.196L821.611 322.295C819.665 331.53 817.91 339.858 814.677 347.953C810.021 359.615 806.783 368.149 802.383 377.192C799.237 383.659 795.199 389.033 789.623 395.994C783.813 403.248 778.492 409.917 773.841 415.493C767.11 423.565 757.607 429.883 752.031 432.674L751.998 432.691C745.764 435.812 736.289 440.555 727.207 444.738C721.154 447.526 715.839 450.767 708.648 453.099C699.498 456.066 690.777 455.417 674.801 455.431C665.835 455.439 660.147 446.173 653.645 437.13C649.235 430.996 645.751 425.288 643.419 419.712C641.089 414.141 638.316 408.581 635.302 403.005C632.385 397.609 630.881 385.441 629.496 376.551C629.029 375.152 628.57 373.773 628.333 370.996C628.097 368.218 628.097 364.083 628.097 359.823M669.585 214.997C703.392 214.353 894.107 210.848 928.4 210.618C964.535 210.376 974.234 209.455 986.987 209.226C991.934 209.137 993.768 208.536 1013.55 208.3C1033.34 208.063 1071.01 208.063 1091.34 207.833C1113.51 207.583 1131.94 206.671 1157.69 206.441C1171.17 206.321 1195.93 203.886 1219.95 202.731C1248.19 201.372 1268.54 202.034 1282.11 201.338C1317.23 199.537 1342.33 200.642 1346.94 199.946C1362.12 197.656 1371.52 198.317 1378.52 196.932C1381.39 196.363 1398.34 195.532 1422.7 195.303C1449.88 195.046 1484.33 195.978 1491.29 199.925C1499.02 204.312 1505.21 209.427 1509.17 215.004C1512.62 219.86 1513.12 226.135 1514.98 231.711C1517.22 238.441 1517.3 247.019 1518.93 256.501C1523.22 281.476 1517.77 289.234 1516.61 300.588C1514.14 324.886 1514.99 339.746 1513.6 350.285C1512.63 357.656 1508.97 363.972 1506.41 370.703C1503.93 377.21 1500.62 384.383 1498.06 390.432C1495.58 396.272 1492.26 401.564 1489.7 407.14C1486.96 413.113 1482.52 418.271 1476.26 425.003C1470.88 430.79 1467.2 436.371 1462.33 440.791C1457.41 445.255 1453.75 451.686 1447.02 457.032C1441.71 461.251 1435.65 462.379 1428.92 464.237C1418.8 467.032 1402.71 466.556 1387.24 468.185C1339.83 473.175 1332.18 469.814 1322.42 470.969C1311.32 472.285 1296.51 472.598 1273.56 473.754C1241.16 475.385 1219.36 472.612 1218.66 469.145C1216.87 460.233 1216.12 454.526 1214.49 445.504C1210.4 422.855 1216.56 416.934 1219.58 411.129C1222.9 404.732 1224.92 398.835 1228.39 393.258C1232.31 386.969 1238.81 381.208 1243.93 374.929C1249.65 367.926 1255.99 365.865 1260.41 361.695C1264.79 357.561 1271.31 355.2 1278.04 351.483C1284.23 348.066 1290.8 345.454 1300.3 340.811C1308.83 336.644 1317.7 336.154 1326.75 334.998C1345.43 332.612 1353.9 332.45 1362.73 331.747C1369.86 331.18 1377.12 328.273 1391.25 327.57C1400.93 327.088 1408.2 325.015 1418.87 323.86C1434.22 323.164 1441.61 322.231 1454.11 321.075C1461.48 320.839 1474.8 320.839 1489.92 322.231M1002.62 475.383C1002.62 471.234 1003.54 462.88 1004.47 454.763C1005.36 447.083 1010.03 441.996 1012.36 435.264C1014.36 429.497 1015.15 422.977 1017.69 415.772C1020.04 409.123 1021.64 400.7 1023.27 390.954C1024.59 383.072 1027.21 375.639 1029.07 369.59C1030.8 363.971 1032.78 358.458 1035.79 352.652C1039.11 346.256 1041.13 340.359 1044.15 333.397C1047.1 326.58 1049.49 320.866 1051.35 315.29C1053.2 309.714 1055.06 304.159 1057.14 298.583C1059.37 292.644 1063.86 287.451 1066.89 281.875C1069.92 276.305 1072.68 270.744 1077.79 265.168C1083.11 259.35 1088.92 255.874 1094.49 252.63C1100.08 249.383 1105.62 246.602 1111.2 244.04C1118.27 240.793 1126.51 236.856 1132.08 233.368C1137.28 230.115 1143.22 228.029 1148.79 225.94C1155.11 223.573 1162.23 221.067 1168.28 219.208C1174.06 217.435 1180.33 214.106 1186.61 212.477C1193.61 210.661 1207.65 208.091 1222.56 206.211C1225.82 205.752 1229.04 204.833 1231.61 204.13C1234.19 203.427 1236.03 202.967 1239.31 202.494M1677.88 189.963C1674.64 193.653 1671.87 202.912 1669.54 214.287C1667.66 223.452 1663.51 231.704 1660.95 241.207C1656.35 258.296 1648.2 280.434 1644.71 287.166C1641.27 293.817 1639.85 302.711 1636.13 311.984C1632.63 320.717 1630.1 329.164 1628.92 336.126C1627.71 343.303 1624.06 350.494 1620.58 360.7C1614.24 379.326 1612 390.843 1608.74 400.171C1605.62 409.098 1602.25 422.42 1599.69 432.883C1597.59 441.468 1592.51 450.294 1587.41 463.952C1582.07 478.232 1578.11 486.493 1574.64 493.225C1570.94 500.382 1564.69 510.134 1559.78 518.286C1553.32 529.018 1538.71 547.726 1532.18 555.412C1524.19 564.812 1518.27 570.95 1511.99 576.999C1501.4 587.205 1484.38 596.039 1478.12 600.668C1469.75 606.853 1462.06 610.718 1453.75 612.976C1446.78 614.869 1436.69 616.432 1428.4 618.383C1419.34 620.514 1400.41 623.029 1386.23 625.593C1353.6 631.493 1262.74 628.752 1243.93 629.5M1672.31 71.6187H1675.1M1980.01 480.952C1974 480.952 1967.51 481.871 1945.75 482.574C1935.42 482.908 1926.21 484.655 1903.52 485.359C1896.03 485.591 1870.72 486.521 1834.76 486.291C1815.21 486.167 1807.87 482.818 1797.2 482.115C1789.6 481.614 1779.58 478.641 1768.88 477.938C1761.17 477.43 1755.88 472.153 1751.92 466.82C1746.58 459.636 1747.5 422.309 1749.81 401.619C1750.65 394.102 1753.99 387.696 1755.84 380.965C1757.7 374.233 1759.55 366.812 1761.41 361.006C1763.79 353.592 1763.73 345.928 1765.59 340.352C1767.83 333.622 1767.91 323.206 1768.84 315.527C1769.67 308.715 1774.4 300.929 1776.96 294.176C1779.73 286.878 1785.54 281.882 1789.25 276.306C1793.12 270.509 1798.98 263.337 1804.56 257.044C1809.71 251.238 1817.08 246.602 1822.89 243.81C1832.97 238.963 1844.93 234.071 1851.66 231.28C1864.35 226.008 1873.7 222.459 1880.43 219.445C1890.16 215.096 1899.23 215.498 1911.27 214.795C1914.55 214.604 1917.3 214.106 1941.01 213.869C1964.71 213.632 2009.28 213.632 2032.92 213.862C2057.96 214.105 2060.75 215.484 2063.53 217.099C2073.04 222.628 2071.9 257.963 2067.75 273.48C2065.62 281.417 2054.78 287.841 2044.1 295.979C2032.09 305.126 2021.81 310.619 2011.38 317.33C2003.92 322.13 1998.14 324.542 1991.41 327.556C1984.83 330.499 1971.74 334.734 1956.63 338.465C1945.51 341.209 1932.31 340.331 1907.7 343.797C1891.96 346.015 1882.61 346.819 1875.15 348.448C1866.95 350.238 1857.54 350.996 1843.64 352.625C1819.91 353.321 1815.73 354.713 1812.27 355.409C1810.18 355.646 1807.42 355.646 1804.58 355.646M2400.48 476.775C2347.95 484.247 2293.62 474.507 2240.95 471.443C2188.95 468.418 2183.31 468.895 2177.74 465.651C2172.33 462.505 2170.31 455.919 2168.21 441.383C2160.92 390.991 2170.28 383.993 2171.91 377.254C2174.05 368.418 2174.46 362.635 2176.09 356.829C2178.18 349.373 2180.03 341.751 2183.04 336.175C2185.87 330.934 2187.91 325.043 2189.08 312.534C2189.76 305.383 2192.56 299.982 2194.42 294.406L2199.99 277.699C2201.84 272.122 2204.61 263.81 2207.18 256.814C2209.36 250.859 2212.05 245.683 2214.83 239.647C2220.45 227.436 2233.38 221.54 2238.96 216.897C2243.6 213.03 2250.09 212.713 2255.66 210.855C2262.21 208.674 2270.5 205.752 2285.51 204.123C2295.81 203.005 2315.16 203.886 2326.02 203.657C2336.88 203.427 2338.72 202.967 2365.17 202.731C2391.61 202.494 2442.61 202.494 2469.8 202.724C2498.84 202.969 2508.54 204.805 2521.75 206.427C2527.16 207.091 2529.91 207.59 2559.36 207.826C2588.8 208.063 2644.86 208.063 2674.65 208.293C2704.45 208.523 2706.28 208.982 2722.62 209.219C2738.96 209.455 2769.74 209.455 2786.52 209.226C2805.15 208.971 2819.9 208.063 2840.08 208.293C2852.49 209.455 2859.91 209.915 2865.24 210.611C2867.8 210.848 2870.1 210.848 2872.47 215.025M2877.09 227.799C2871.51 225.71 2848.9 219.425 2834.03 219.897C2712.95 223.748 2625.73 281.735 2632.76 427.871C2635.51 484.9 2721.41 497.358 2764.93 494.638C2801.95 492.324 2874.49 478.356 2894.76 440.555C2898 434.505 2922.61 374.388 2923.6 366.511C2931.01 307.448 2940.1 288.511 2904.64 245.244C2903.42 241.581 2901.8 237.951 2898.67 234.962C2893.8 230.312 2877.09 215.025 2877.09 215.025M2904.64 245.244C2905.06 245.38 2905.47 245.517 2905.88 245.655M2627.09 40.0107C2582.09 182.511 2534.59 330.011 2494.59 482.567M2978.33 499.918C3012.09 407.511 3023.37 220.08 3139.6 196.932C3156.03 193.659 3155.51 195.88 3253.6 195.303C3277.56 196.936 3284.92 202.221 3290.67 206.427C3309.1 219.897 3325.74 288.742 3331.8 301.953C3338.48 316.484 3343.35 331.624 3347.75 344.835C3352.06 357.756 3394.07 447.075 3399.6 460.285M3588.1 195.303C3566.17 261.51 3505.37 367.49 3461.06 420.702C3451.27 432.454 3442.37 447.075 3430.83 460.285C3419.74 472.972 3405.03 488.835 3391.25 503.167C3378.96 515.933 3369.8 532.838 3344.03 560.282C3327.69 577.669 3310.5 594.892 3290.67 606.528C3219.34 648.397 3156.42 645.492 3071.6 649.511C3045.41 650.003 2997.94 649.511 2948.6 649.511" stroke="#111111" stroke-width="80" stroke-linecap="round"/>
<path d="M37.4237 67.0107L445.763 264.655" stroke="#1E3A8A" stroke-width="75" stroke-linecap="round"/>
<path d="M37.4237 190.504L317.664 326.457" stroke="#1E3A8A" stroke-width="75" stroke-linecap="round"/>
<path d="M37.0966 467.336L445.436 269.692" stroke="#1E3A8A" stroke-width="75" stroke-linecap="round"/>
</svg>
